<svg width="197" height="184" viewBox="0 0 197 184" fill="none" xmlns="http://www.w3.org/2000/svg">
<path fill-rule="evenodd" clip-rule="evenodd" d="M82.9651 1.07681C54.8317 5.23525 29.1256 24.5443 16.0595 51.332C1.47193 81.241 3.78798 115.187 22.3512 143.551C44.9664 178.106 89.4269 192.864 127.916 178.592C162.816 165.65 186.144 133.231 188.04 95.0363C188.526 85.2466 187.848 82.4657 184.55 80.7336C181.658 79.2142 179.951 79.3937 177.516 81.4752C175.44 83.2508 175.384 83.4864 174.939 92.3699C173.96 111.923 169.602 124.873 159.206 139.121C151.591 149.558 142.252 157.192 129.798 163.161C119.567 168.065 112.513 169.746 99.9167 170.281C91.8702 170.624 88.4383 170.45 83.5947 169.453C58.9353 164.375 39.446 149.661 28.4481 127.817C23.7208 118.428 21.4396 110.72 20.3506 100.456C18.5187 83.1939 21.654 67.8734 30.1004 52.8144C41.5192 32.4543 60.5855 18.899 83.7728 14.6571C100.793 11.5431 116.141 13.7715 132.484 21.7294C138.494 24.6566 140.778 24.8656 143.446 22.7325C145 21.4909 145.362 20.5846 145.362 17.9314C145.362 13.8971 144.234 12.6459 137.772 9.51188C120.242 1.01181 102.196 -1.76615 82.9651 1.07681ZM176.054 23.3197C175.038 23.5117 170.641 27.9708 164.69 34.843C159.35 41.0082 150.956 50.7064 146.035 56.3938C141.115 62.0812 130.575 74.213 122.613 83.3535C114.65 92.4939 106.187 102.216 103.804 104.958C101.421 107.7 99.1912 109.944 98.8488 109.944C98.5057 109.944 94.3294 106.37 89.5665 102.004C70.0655 84.1217 60.8581 76.2908 58.116 75.2567C55.4438 74.25 55.1174 74.2795 53.2375 75.7021C48.9508 78.9447 49.2423 83.5899 53.9986 87.8384C55.6699 89.3319 61.9507 95.0001 67.9545 100.433C82.2687 113.389 93.673 123.387 95.9098 124.943C98.3334 126.63 101.144 126.517 103.493 124.64C104.562 123.786 109.806 118.052 115.146 111.899C120.487 105.746 130.369 94.3693 137.108 86.6175C143.847 78.8664 152.795 68.5692 156.993 63.7349C161.191 58.9006 168.833 50.1273 173.975 44.2375C185.589 30.9356 186.179 29.6763 182.617 25.8103C180.479 23.4896 178.706 22.8174 176.054 23.3197Z" fill="#7EC8B5"/>
<path fill-rule="evenodd" clip-rule="evenodd" d="M48.6785 40.4022C23.0825 50.8347 1.56305 60.0092 0.857119 60.7903C-0.125599 61.8788 -0.235712 62.5488 0.385746 63.6574C0.867678 64.5171 9.03864 68.3106 20.5477 73.0165L39.8988 80.9295V102.319C39.8988 123.435 39.9207 123.731 41.5958 125.426C48.4914 132.406 82.5713 147.908 93.0961 148.853C98.2405 149.315 104.769 147.609 116.739 142.675C130.274 137.094 144.825 129.295 148.315 125.749L150.766 123.259V80.8952L159.628 77.252C164.501 75.2479 170.186 72.9288 172.26 72.0984L176.031 70.588L159.654 70.5337L128.625 83.1868C111.558 90.1457 97.0322 96.007 96.3452 96.2125C95.6581 96.4172 80.725 90.7506 63.1605 83.6195C24.1716 67.7902 22.9626 67.304 16.5602 64.8596C14.3022 63.9974 12.3556 62.9473 12.2357 62.5271C12.1158 62.1061 17.6689 59.5063 24.5758 56.7494C41.8394 49.859 46.7522 47.8657 72.7034 37.2276L95.327 27.9529L163.026 55.554L171.164 55.7344C175.641 55.833 179.246 55.8639 179.176 55.8021C178.599 55.2941 169.378 51.3719 159.062 47.2458C152.218 44.5082 136.775 38.2518 124.746 33.3438C112.717 28.4358 101.152 23.7483 99.0459 22.9271L95.2177 21.4342L48.6785 40.4022ZM91.7076 60.6332C88.7089 61.8822 89.1931 64.776 92.5795 65.847C94.5027 66.4552 96.0465 66.2915 99.0505 65.1612C102.528 63.8512 103.613 63.7969 108.214 64.7034C111.658 65.3817 126.064 65.8662 150.577 66.1277L187.721 66.5246V73.5963C187.721 77.486 188.073 81.3957 188.502 82.2845C189.04 83.3981 189.04 83.9002 188.502 83.9002C188.073 83.9002 187.043 84.6521 186.213 85.571C184.061 87.9545 184.256 92.0613 186.65 94.8307L188.597 97.0805L187.369 105.737C186.693 110.497 185.627 117.461 184.999 121.212C183.513 130.085 184.564 136.275 188.635 142.622C190.467 145.477 191.582 144.742 194.008 139.084C196.19 133.996 196.121 123.256 193.811 108.3L192.096 97.1958L194.057 95.1824C196.913 92.2493 196.777 87.9144 193.75 85.4349C192.228 84.1884 191.731 83.3012 192.241 82.7365C193.212 81.6613 193.247 61.6115 192.279 60.949C190.954 60.0418 122.685 60.4394 111.733 61.4177C104.349 62.0777 100.689 62.1094 100.043 61.5188C98.5512 60.1529 94.0177 59.6717 91.7076 60.6332ZM46.1066 102.906L46.3095 121.911L53.8515 126.119C71.5019 135.966 87.9766 142.546 94.9846 142.546C101.924 142.546 122.714 134.244 138.321 125.24L144.355 121.758L144.558 102.83C144.67 92.418 144.497 83.9002 144.175 83.9002C143.852 83.9002 140.706 85.0556 137.184 86.4683C133.661 87.8801 129.931 89.3563 128.894 89.7489C127.857 90.1407 123.784 91.7731 119.844 93.3763C115.903 94.9786 108.752 97.8549 103.953 99.768L95.2274 103.246L83.5894 98.5098C77.1893 95.905 69.2371 92.6937 65.9186 91.3746C62.6002 90.0555 57.0463 87.8342 53.577 86.4382C50.1069 85.0422 46.9611 83.9002 46.5863 83.9002C46.1934 83.9002 45.9897 91.9644 46.1066 102.906Z" fill="#105F4F"/>
</svg>
